<svg id="visual" viewBox="0 0 900 600" width="900" height="600" xmlns="http://www.w3.org/2000/svg" xmlns:xlink="http://www.w3.org/1999/xlink" version="1.1">
    <rect width="900" height="600" fill="#800000"></rect>
    <g>
        <g transform="translate(383 401)">
            <path d="M0 -80.1L51.5 -61.4L78.9 -13.9L69.4 40.1L27.4 75.3L-27.4 75.3L-69.4 40.1L-78.9 -13.9L-51.5 -61.4Z" fill="#900404"></path>
        </g>
        <g transform="translate(616 161)">
            <path d="M0 -54L34.7 -41.4L53.2 -9.4L46.8 27L18.5 50.7L-18.5 50.7L-46.8 27L-53.2 -9.4L-34.7 -41.4Z" fill="#900404"></path>
        </g>
        <g transform="translate(443 173)">
            <path d="M0 -50L32.1 -38.3L49.2 -8.7L43.3 25L17.1 47L-17.1 47L-43.3 25L-49.2 -8.7L-32.1 -38.3Z" fill="#900404"></path>
        </g>
        <g transform="translate(623 369)">
            <path d="M0 -47L30.2 -36L46.3 -8.2L40.7 23.5L16.1 44.2L-16.1 44.2L-40.7 23.5L-46.3 -8.2L-30.2 -36Z" fill="#900404"></path>
        </g>
        <g transform="translate(222 280)">
            <path d="M0 -57L36.6 -43.7L56.1 -9.9L49.4 28.5L19.5 53.6L-19.5 53.6L-49.4 28.5L-56.1 -9.9L-36.6 -43.7Z" fill="#900404"></path>
        </g>
        <g transform="translate(190 451)">
            <path d="M0 -67L43.1 -51.3L66 -11.6L58 33.5L22.9 63L-22.9 63L-58 33.5L-66 -11.6L-43.1 -51.3Z" fill="#900404"></path>
        </g>
        <g transform="translate(792 244)">
            <path d="M0 -56L36 -42.9L55.1 -9.7L48.5 28L19.2 52.6L-19.2 52.6L-48.5 28L-55.1 -9.7L-36 -42.9Z" fill="#900404"></path>
        </g>
        <g transform="translate(799 507)">
            <path d="M0 -36L23.1 -27.6L35.5 -6.3L31.2 18L12.3 33.8L-12.3 33.8L-31.2 18L-35.5 -6.3L-23.1 -27.6Z" fill="#900404"></path>
        </g>
        <g transform="translate(509 501)">
            <path d="M0 -76L48.9 -58.2L74.8 -13.2L65.8 38L26 71.4L-26 71.4L-65.8 38L-74.8 -13.2L-48.9 -58.2Z" fill="#900404"></path>
        </g>
    </g>
</svg>